# xmcd CD database file
# Generated: Thu Aug 8 21:47:56 2002 by KSCD
# 
# Track frame offsets:
#       150
#       17212
#       33028
#       48532
#       62594
#       76906
#       89388
#       110601
#       125294
#       144162
#       158198
#       173533
#       184281
#
# Disc length: 2634 seconds
#
# Revision: 1
# Processed by: cddbd v1.4PL0 Copyright (c) Steve Scherf et al.
# Submitted via: Kscd 1.3.3
#
DISCID=9e0a480d
DTITLE=Kennedys, The - Angel Fire
DYEAR=1900
DGENRE=
TTITLE0=Common Bond
TTITLE1=Coo Coo, The
TTITLE2=Bells and Leaves and Letters
TTITLE3=Angels Cry
TTITLE4=Fire and the Rose, The
TTITLE5=Just Like Henry David
TTITLE6=Feather in the Flame
TTITLE7=Bend in the River, A
TTITLE8=Jesse
TTITLE9=Letter to Emily, A
TTITLE10=Angle Fire
TTITLE11=Hey Vin
TTITLE12=Place in Time, A
EXTD=
EXTT0=
EXTT1=
EXTT2=
EXTT3=
EXTT4=
EXTT5=
EXTT6=
EXTT7=
EXTT8=
EXTT9=
EXTT10=
EXTT11=
EXTT12=
PLAYORDER=
